<svg width="260" height="100" viewBox="0 0 260 100" fill="none" xmlns="http://www.w3.org/2000/svg">
<path fill-rule="evenodd" clip-rule="evenodd" d="M210 6V0L254 1.9233e-06L260 2.18557e-06V6V50H254V6L210 6ZM186.828 54.64L193.628 64H202.108L192.748 52.88L192.778 52.8436L189 48H196.791L202.028 41.68H193.588L186.828 50.76V34.4H179.988V64H186.828V54.64ZM47 64.0999V58H46.9767C47.4722 57.5331 47.72 56.9197 47.72 56.16C47.72 55.4667 47.48 54.8933 47 54.44C46.5467 53.9867 45.9733 53.6133 45.28 53.32C44.6133 53.0267 43.6533 52.6933 42.4 52.32C40.5867 51.76 39.1067 51.2 37.96 50.64C36.8133 50.08 35.8267 49.2533 35 48.16C34.1733 47.0667 33.76 45.64 33.76 43.88C33.76 41.2667 34.7067 39.2267 36.6 37.76C38.0594 36.6089 39.8594 35.9015 42 35.6377V41.4905C41.9164 41.5485 41.8364 41.6117 41.76 41.68C41.2533 42.1067 41 42.7333 41 43.56C41 44.4667 41.4267 45.1733 42.28 45.68C43.1333 46.1867 44.4667 46.7333 46.28 47.32C48.0933 47.9333 49.56 48.52 50.68 49.08C51.8267 49.64 52.8133 50.4533 53.64 51.52C54.4667 52.5867 54.88 53.96 54.88 55.64C54.88 57.24 54.4667 58.6933 53.64 60C52.84 61.3067 51.6667 62.3467 50.12 63.12C49.1828 63.5886 48.1428 63.9152 47 64.0999ZM46 41.7008C46.0407 41.7328 46.0807 41.7658 46.12 41.8C46.7333 42.3067 47.0667 43.0133 47.12 43.92H54.52C54.3867 41.28 53.3733 39.2267 51.48 37.76C50.0134 36.6032 48.1867 35.8945 46 35.6338V41.7008ZM43 64.2049C41.5942 64.0723 40.3009 63.764 39.12 63.28C37.4933 62.6133 36.1867 61.6267 35.2 60.32C34.24 59.0133 33.7333 57.44 33.68 55.6H40.96C41.0667 56.64 41.4267 57.44 42.04 58C42.3209 58.2442 42.6409 58.4325 43 58.5649V64.2049ZM81.1294 64V41.68H74.2894V53.0005L74.29 53V64H81.1294ZM70 63.9169V58.5199L69.9694 58.52C68.6627 58.52 67.6227 58.1067 66.8494 57.28C66.076 56.4533 65.6894 55.2933 65.6894 53.8V41.68H58.8894V54.72C58.8894 56.6667 59.2494 58.36 59.9694 59.8C60.6894 61.24 61.7027 62.3467 63.0094 63.12C64.316 63.8667 65.8227 64.24 67.5294 64.24C68.4019 64.24 69.2254 64.1323 70 63.9169ZM114.522 41.44C117.296 41.44 119.496 42.28 121.123 43.96C122.776 45.64 123.603 47.9733 123.603 50.96V57.2812L123.4 57H116.802V51.88C116.802 50.44 116.416 49.3333 115.643 48.56C114.896 47.76 113.856 47.36 112.522 47.36C111.189 47.36 110.136 47.76 109.363 48.56C108.616 49.3333 108.243 50.44 108.243 51.88V64H101.443V51.88C101.443 50.44 101.056 49.3333 100.283 48.56C99.5358 47.76 98.4958 47.36 97.1625 47.36C95.8292 47.36 94.7758 47.76 94.0025 48.56C93.2558 49.3333 92.8825 50.44 92.8825 51.88V64H86.0425V41.68H92.8825V44.48C93.5758 43.5467 94.4825 42.8133 95.6025 42.28C96.7225 41.72 97.9892 41.44 99.4025 41.44C101.083 41.44 102.576 41.8 103.882 42.52C105.216 43.24 106.256 44.2667 107.003 45.6C107.776 44.3733 108.829 43.3733 110.162 42.6C111.496 41.8267 112.949 41.44 114.522 41.44ZM123.603 62V64H116.802V62H123.603ZM149.306 54.48C149.386 53.7867 149.426 53.12 149.426 52.48C149.426 50.24 148.946 48.28 147.986 46.6C147.053 44.92 145.746 43.6267 144.066 42.72C142.386 41.8133 140.466 41.36 138.306 41.36C136.093 41.36 134.133 41.8267 132.426 42.76C130.72 43.6933 129.386 45.0267 128.426 46.76C127.493 48.4933 127.026 50.52 127.026 52.84C127.026 55.16 127.506 57.1867 128.466 58.92C129.426 60.6533 130.76 61.9867 132.466 62.92C133.548 63.5115 134.726 63.9155 136 64.1322V58.2779C135.696 58.1182 135.412 57.9189 135.146 57.68C134.373 56.9333 133.933 55.8667 133.826 54.48H149.306ZM140 58.3504V64.2168C141.155 64.0715 142.231 63.7725 143.226 63.32C144.693 62.6533 145.906 61.7333 146.866 60.56C147.853 59.3867 148.533 58.0667 148.906 56.6H141.626C141.25 57.4129 140.708 57.9964 140 58.3504ZM141.226 47.88C142.026 48.5733 142.426 49.5067 142.426 50.68H133.866C134.053 49.4533 134.533 48.5067 135.306 47.84C136.106 47.1733 137.08 46.84 138.226 46.84C139.426 46.84 140.426 47.1867 141.226 47.88ZM166.635 41.44C169.248 41.44 171.328 42.2933 172.875 44C174.448 45.68 175.235 48 175.235 50.96V57H168.435V51.88C168.435 50.3867 168.048 49.2267 167.275 48.4C166.501 47.5733 165.461 47.16 164.155 47.16C162.848 47.16 161.808 47.5733 161.035 48.4C160.261 49.2267 159.875 50.3867 159.875 51.88V64H153.035V41.68H159.875V44.64C160.568 43.6533 161.501 42.88 162.675 42.32C163.848 41.7333 165.168 41.44 166.635 41.44ZM168.435 64V62H175.235V64H168.435ZM213 58.0065V64.1988C211.545 64.0051 210.197 63.5788 208.954 62.92C207.221 61.9867 205.848 60.6533 204.834 58.92C203.848 57.1867 203.354 55.16 203.354 52.84C203.354 50.5467 203.861 48.5333 204.874 46.8C205.888 45.04 207.274 43.6933 209.034 42.76C210.254 42.1133 211.576 41.6907 213 41.4921V47.6964C212.496 47.9351 212.041 48.2762 211.634 48.72C210.754 49.6533 210.314 51.0267 210.314 52.84C210.314 54.6267 210.741 56 211.594 56.96C212.014 57.4181 212.483 57.767 213 58.0065ZM217 57.8872V64.1629C218.359 63.955 219.624 63.5407 220.794 62.92C222.581 61.9867 223.981 60.6533 224.994 58.92C226.034 57.16 226.554 55.1333 226.554 52.84C226.554 50.5467 226.048 48.5333 225.034 46.8C224.021 45.04 222.634 43.6933 220.874 42.76C219.681 42.1271 218.39 41.7088 217 41.5051V47.7578C217.45 47.9922 217.861 48.313 218.234 48.72C219.141 49.68 219.594 51.0533 219.594 52.84C219.594 54.6267 219.128 56 218.194 56.96C217.829 57.3471 217.431 57.6562 217 57.8872ZM6 50H0V94V100H6H50V94H6V50Z" fill="#FFD700"/>
</svg>
